<?xml version="1.0" encoding="UTF-8"?>
<svg id="_レイヤー_1" data-name="レイヤー 1" xmlns="http://www.w3.org/2000/svg" viewBox="0 0 32 19.61">
  <defs>
    <style>
      .cls-1 {
        fill: #005bab;
      }
    </style>
  </defs>
  <path class="cls-1" d="M25.98,7.56c-.9,0-1.75.2-2.52.55l-1.86-2.52.6-1.43.23-.55h0s0-.01,0-.01h-1.63l-.53,1.26h-8.4s1.85-3.25,1.85-3.25L14.63.01h0,0s-5.6-.01-5.6-.01c-.56,0-1.08.26-1.39.69-.53.73-.68,1.85.44,2.81.01.01.03.02.04.04h0s0,0,0,0l.95-1.15h0s0,0,0,0h0c-.51-.42-.35-.64-.22-.82.02-.02.08-.06.17-.06h3.02s-1.91,3.36-1.91,3.36l-.24.42-1.55,2.74c-.71-.3-1.5-.46-2.32-.46-3.32,0-6.02,2.7-6.02,6.02s2.7,6.02,6.02,6.02,6.02-2.7,6.02-6.02c0-1.96-.94-3.71-2.4-4.81l.88-1.54.35-.62,5.89,7.98h3.26c.48,2.84,2.96,5.01,5.94,5.01,3.32,0,6.02-2.7,6.02-6.02s-2.7-6.02-6.02-6.02ZM18.87,13.09h-.42s2.47-5.88,2.47-5.88l1.26,1.7c-1.24,1.01-2.07,2.5-2.21,4.18h-1.1ZM19.63,6.38l-1.68,3.98-.89,2.1-4.5-6.09h7.06ZM21.7,13.09c.13-1.12.68-2.1,1.5-2.79l1.29,1.75.76,1.04h-3.55ZM25.98,17.89c-2.03,0-3.73-1.4-4.18-3.29h5.79c.27,0,.43-.31.27-.53l-2.62-3.55-.72-.98c.46-.17.95-.26,1.46-.26,2.38,0,4.3,1.93,4.3,4.3s-1.93,4.3-4.3,4.3ZM7.49,9.54l-1.91,3.36c-.11.2-.04.46.16.57l.58.33c.2.11.46.04.57-.16l1.61-2.84.3-.52c.94.79,1.54,1.97,1.54,3.29,0,2.38-1.93,4.3-4.3,4.3s-4.3-1.93-4.3-4.3,1.93-4.3,4.3-4.3c.48,0,.93.08,1.36.22.03.01.07.02.1.03Z"/>
  <path class="cls-1" d="M19.38,3.12h4.21c.28,0,.5-.18.5-.4v-1.09c0-.22-.23-.4-.5-.4l-4.21.3c-.28,0-.5.18-.5.4v.79c0,.22.23.4.5.4Z"/>
</svg>